#tb 0: 1/25
0,          0,          0,        1,   405504, 0xe0f40e71
0,          1,          1,        1,   405504, 0x9bdb5900
0,          2,          2,        1,   405504, 0x527003ca
0,          3,          3,        1,   405504, 0x1fbf8ba6
0,          4,          4,        1,   405504, 0x455e2a4e
